<svg aria-hidden="true" style="position: absolute; width: 0; height: 0; overflow: hidden;" version="1.1" xmlns="http://www.w3.org/2000/svg" xmlns:xlink="http://www.w3.org/1999/xlink">
<defs>
<symbol id="icon-Subtract" viewBox="0 0 32 32">
<path fill="#128c76" style="fill: var(--color1, #128c76)" d="M16 32c8.837 0 16-7.163 16-16s-7.163-16-16-16c-8.837 0-16 7.163-16 16 0 1.759 0.284 3.451 0.808 5.034l4.416-3.864c0.115-0.1 0.265-0.151 0.417-0.14s0.294 0.082 0.393 0.198l4.41 5.145 12.961-12.241-3.762-0.107c-0.315-0.009-0.564-0.272-0.555-0.588s0.272-0.564 0.587-0.555l5.141 0.147c0.315 0.009 0.564 0.272 0.555 0.588l-0.147 5.141c-0.009 0.316-0.272 0.564-0.588 0.555s-0.564-0.272-0.555-0.588l0.108-3.762-13.397 12.653c-0.114 0.107-0.266 0.163-0.422 0.155s-0.302-0.080-0.404-0.199l-4.424-5.162-4.306 3.767c2.417 5.769 8.117 9.822 14.764 9.822z"></path>
</symbol>
</defs>
</svg>
